<svg xmlns="http://www.w3.org/2000/svg" viewBox="0 0 128 128" width="128" height="128">
  <defs>
    <linearGradient id="roofGrad" x1="0" y1="0" x2="0" y2="1">
      <stop offset="0%" stop-color="#cbe7ff"/>
      <stop offset="100%" stop-color="#8fcaff"/>
    </linearGradient>
    <linearGradient id="baseGrad" x1="0" y1="0" x2="0" y2="1">
      <stop offset="0%" stop-color="#d5e4f7"/>
      <stop offset="100%" stop-color="#9aa7bd"/>
    </linearGradient>
  </defs>
  <rect x="12" y="96" width="104" height="12" rx="4" fill="#1f2a37" opacity="0.15"/>
  <polygon points="8,48 64,12 120,48" fill="url(#roofGrad)" stroke="#1f2a37" stroke-width="4" stroke-linejoin="round"/>
  <rect x="16" y="48" width="96" height="12" rx="4" fill="#1f2a37" opacity="0.08"/>
  <rect x="20" y="60" width="88" height="32" rx="6" fill="url(#baseGrad)" stroke="#1f2a37" stroke-width="3"/>
  <rect x="20" y="92" width="88" height="18" rx="6" fill="#1f2a37"/>
  <rect x="24" y="96" width="20" height="10" rx="3" fill="#f9f7f4"/>
  <rect x="54" y="96" width="20" height="10" rx="3" fill="#f9f7f4"/>
  <rect x="84" y="96" width="20" height="10" rx="3" fill="#f9f7f4"/>
  <rect x="30" y="64" width="12" height="24" rx="3" fill="#f8d18c"/>
  <rect x="58" y="64" width="12" height="24" rx="3" fill="#f8d18c"/>
  <rect x="86" y="64" width="12" height="24" rx="3" fill="#f8d18c"/>
  <rect x="26" y="62" width="20" height="6" rx="2" fill="#ffffff" opacity="0.55"/>
  <rect x="54" y="62" width="20" height="6" rx="2" fill="#ffffff" opacity="0.55"/>
  <rect x="82" y="62" width="20" height="6" rx="2" fill="#ffffff" opacity="0.55"/>
  <circle cx="64" cy="30" r="6" fill="#f8d18c" stroke="#1f2a37" stroke-width="3"/>
  <text x="64" y="56" text-anchor="middle" font-family="'Poppins', 'Segoe UI', Arial, sans-serif" font-weight="700" font-size="22" fill="#1f2a37">BANK</text>
</svg>
